<?xml version="1.0"?>

<!DOCTYPE svg PUBLIC '-//W3C//DTD SVG 1.0//EN' 'http://www.w3.org/TR/2001/REC-SVG-20010904/DTD/svg10.dtd'>
<svg fill-opacity="1" xmlns:xlink="http://www.w3.org/1999/xlink" color-rendering="auto" color-interpolation="auto" stroke="black" text-rendering="auto" stroke-linecap="square" stroke-miterlimit="10" stroke-opacity="1" shape-rendering="auto" fill="black" stroke-dasharray="none" font-weight="normal" stroke-width="1" xmlns="http://www.w3.org/2000/svg" font-family="&apos;Dialog&apos;" font-style="normal" stroke-linejoin="miter" font-size="12" stroke-dashoffset="0" image-rendering="auto">
  <!--Unicode Character 'CLAPPING HANDS SIGN' (U+1F44F)-->
  <defs id="genericDefs" />
  <g>
    <g>
      <path d="M246.375 113.9062 Q246.375 119.25 242.5781 119.25 Q241.1719 119.25 237.7266 116.5781 Q234.2812 113.9062 233.3672 112.2891 Q232.4531 110.6719 230.0625 107.0156 Q227.8125 104.0625 223.0312 100.125 Q207.2812 87.1875 207.2812 83.8125 Q207.2812 80.5781 210.6562 80.5781 Q214.7344 80.5781 230.5547 95.5547 Q246.375 110.5312 246.375 113.9062 ZM190.6875 116.7188 Q190.6875 117.1406 190.5469 118.125 Q190.5469 119.25 190.5469 119.6719 Q190.5469 122.0625 188.1562 122.0625 Q186.0469 122.0625 183.5156 118.8984 Q180.9844 115.7344 179.5781 115.7344 Q178.7344 115.7344 175.6406 118.8281 L172.5469 118.8281 L172.5469 113.625 Q176.2031 109.8281 176.7656 109.5469 Q177.8906 108.8438 182.1094 108.8438 Q183.6562 108.8438 187.1719 112.0781 Q190.6875 115.3125 190.6875 116.7188 ZM168.4688 127.6875 Q168.4688 131.9062 166.2188 131.9062 Q164.5312 131.9062 161.9297 129.2344 Q159.3281 126.5625 157.9219 126.5625 Q156.6562 126.5625 151.8047 130.1484 Q146.9531 133.7344 145.125 133.7344 Q142.4531 133.7344 142.4531 131.2031 Q142.4531 128.9531 147.5156 124.6641 Q152.5781 120.375 155.1094 119.5312 Q155.9531 119.25 159.6094 119.25 Q162.5625 119.25 168.3281 125.1562 Q168.4688 126.5625 168.4688 127.6875 ZM145.125 143.8594 Q145.125 147.2344 141.4688 147.2344 Q140.7656 147.2344 136.6875 145.4062 Q132.6094 143.5781 131.9062 143.5781 Q130.0781 143.5781 126.9844 147.1641 Q123.8906 150.75 121.5 150.75 Q121.0781 150.75 120.3047 150.5391 Q119.5312 150.3281 119.0391 150.1875 Q118.5469 150.0469 118.5469 149.0625 Q118.5469 147.2344 122.4141 142.5938 Q126.2812 137.9531 128.25 137.5312 Q129.7969 137.25 132.3281 137.25 Q134.8594 137.25 136.4766 137.5312 Q138.0938 137.8125 141.6094 140.1328 Q145.125 142.4531 145.125 143.8594 ZM288.5625 188.5781 Q282.2344 186.8906 269.8594 182.6719 Q261 179.0156 258.1875 176.4844 Q258.0469 176.625 258.0469 177.1875 Q258.0469 178.3125 259.3828 180.9844 Q260.7188 183.6562 260.7188 184.7812 Q260.7188 189.5625 256.9219 189.5625 Q252.7031 189.5625 249.1875 181.6875 Q248.625 180.4219 245.25 168.1875 Q242.2969 157.6406 228.375 137.8125 Q216 120.2344 206.4375 110.6719 Q205.875 110.1094 202.5 108.6328 Q199.125 107.1562 198.4219 107.1562 Q185.3438 107.1562 185.3438 107.1562 L121.2188 96.75 L121.2188 97.0312 Q127.125 100.6875 139.2188 107.5781 Q142.3125 108.5625 148.2188 111.7969 Q148.2188 116.4375 145.4062 117.4219 Q144.4219 117.7031 138.5156 117.7031 Q136.8281 117.7031 128.3906 112.3594 Q118.6875 106.0312 117.2812 105.4688 Q85.3594 90.5625 80.7188 90.5625 Q77.9062 90.5625 77.9062 94.0781 Q77.9062 99 78.0469 98.2969 Q84.5156 101.25 97.3125 107.8594 Q102.5156 111.7969 113.4844 118.8281 Q116.0156 119.8125 121.0781 121.9219 Q134.2969 127.2656 134.2969 129.375 Q134.2969 133.3125 129.6562 133.3125 Q124.0312 133.3125 107.8594 125.8594 Q102.2344 121.9219 90.7031 114.4688 Q83.25 110.8125 68.7656 102.6562 Q66.375 103.6406 66.375 105.1875 Q66.375 105.4688 68.9062 109.9688 Q69.3281 111.0938 70.4531 113.0625 Q70.7344 113.4844 80.7188 122.625 Q86.625 128.1094 95.9062 133.0312 Q104.0625 137.25 112.2188 141.4688 L112.2188 144.8438 Q110.1094 145.8281 106.5938 145.8281 Q100.4062 145.8281 86.3438 138.5156 Q85.0781 137.8125 78.1875 132.0469 Q72.1406 126.9844 70.5938 126.9844 Q67.2188 126.9844 67.2188 131.4844 Q67.2188 135.7031 79.7344 146.6719 Q90.9844 156.5156 96.8906 159.3281 Q100.9688 160.7344 108.1406 164.9531 Q110.1094 168.1875 113.625 173.3906 Q121.2188 183.7969 147.2344 207.8438 Q157.7812 217.6875 180.5625 225.8438 Q199.6875 232.7344 205.4531 232.7344 Q207.2812 232.7344 210.8672 232.2422 Q214.4531 231.75 216.2812 231.75 Q217.5469 231.75 230.3438 233.0156 Q238.6406 233.7188 254.6719 235.9688 Q260.0156 237.0938 270.7031 243.5625 L270.7031 249.75 L268.7344 251.4375 Q267.8906 251.5781 265.0781 251.5781 Q263.25 251.5781 251.8594 247.2188 Q249.3281 246.2344 243.1406 246.2344 Q242.4375 248.2031 240.75 252 Q238.6406 254.1094 234.7031 258.75 Q229.7812 265.7812 227.25 268.5938 Q223.1719 273.375 217.9688 276.6094 Q204.75 284.9062 173.8125 300.375 Q166.6406 303.75 152.5781 311.2031 Q151.5938 312.0469 149.4844 313.5938 Q140.9062 318.5156 132.75 321.1875 Q118.5469 325.8281 111.6562 325.8281 Q105.0469 325.8281 99.4219 320.9062 Q80.8594 334.2656 56.8125 343.2656 Q56.25 343.5469 54.9844 343.5469 Q48.0938 343.5469 45.8438 342.4219 Q42.6094 341.0156 39.5156 335.25 Q39.375 334.8281 39.375 331.5938 Q17.2969 330.3281 17.2969 314.8594 Q17.2969 309.9375 20.8828 302.6953 Q24.4688 295.4531 24.4688 295.7344 Q24.4688 295.1719 23.6953 293.3438 Q22.9219 291.5156 22.7109 290.7422 Q22.5 289.9688 22.5 283.7812 Q22.5 277.3125 41.3438 254.8125 Q57.0938 235.9688 80.7188 224.8594 Q73.6875 224.1562 63.8438 223.1719 Q57.5156 222.4688 51.1875 217.4062 Q44.2969 211.7812 44.2969 205.7344 Q44.2969 197.0156 53.8594 189.2812 Q55.8281 187.5938 59.9062 186.6094 Q63.2812 185.7656 66.5156 184.9219 Q80.8594 180 83.5312 179.0156 Q93.0938 175.3594 99.7031 171.1406 Q99.7031 170.7188 98.8594 170.2969 Q88.3125 164.8125 77.4844 155.9531 Q63.8438 145.125 61.0312 137.1094 Q60.8906 136.5469 60.8906 130.0781 Q60.8906 128.25 63.3516 125.6484 Q65.8125 123.0469 65.9531 122.2031 Q61.7344 116.8594 59.3438 109.2656 Q59.0625 108.1406 59.0625 102.6562 Q59.0625 101.8125 65.5312 94.3594 Q66.0938 94.0781 67.2188 94.0781 Q68.4844 94.0781 71.4375 95.0625 Q71.5781 90.4219 74.7422 86.625 Q77.9062 82.8281 82.4062 82.8281 Q85.5 82.8281 93.9375 86.4141 Q102.375 90 102.7969 90 Q103.5 90 104.8359 89.3672 Q106.1719 88.7344 106.875 88.7344 Q108.8438 88.7344 112.8516 89.0859 Q116.8594 89.4375 118.8281 89.4375 Q129.2344 89.4375 145.4062 92.25 Q166.9219 95.9062 171.8438 96.4688 Q173.25 96.6094 177.0469 97.5938 Q180.4219 98.5781 182.25 98.5781 L198.8438 98.5781 Q199.4062 98.5781 202.2188 99.8438 Q205.0312 101.1094 205.7344 101.25 Q208.4062 101.1094 213.75 101.9531 Q214.875 102.375 216.9844 105.0469 L216.9844 106.0312 Q216.9844 106.5938 216.2812 109.125 Q220.0781 112.3594 226.8281 119.8125 Q235.5469 134.5781 254.1094 163.5469 Q256.6406 167.2031 288.5625 179.2969 L288.5625 188.5781 ZM64.5469 154.8281 Q64.5469 156.2344 62.6484 157.5703 Q60.75 158.9062 59.3438 158.9062 Q52.875 158.9062 37.6875 151.3125 Q21.375 143.1562 21.375 137.8125 Q21.375 134.1562 24.75 134.1562 Q25.0312 134.1562 34.1719 139.0781 Q43.875 144.2812 45.1406 144.8438 Q50.0625 146.25 59.4844 149.625 Q64.5469 151.875 64.5469 154.8281 ZM214.0312 293.625 Q214.0312 296.0156 203.2031 304.1719 Q194.0625 311.2031 189.5625 313.5938 Q185.9062 315.5625 173.8125 320.9062 Q160.5938 326.8125 158.9062 326.8125 Q157.9219 326.8125 155.1094 325.8281 L155.1094 321.8906 Q155.9531 320.9062 157.7812 319.3594 Q167.4844 315.1406 185.3438 306.4219 Q186.75 305.7188 197.7188 297 Q206.8594 289.8281 210.0938 289.8281 Q214.0312 289.8281 214.0312 293.625 ZM58.7812 171.5625 Q58.7812 177.3281 42.4688 177.3281 Q41.625 177.3281 39.7969 177.4688 Q37.9688 177.6094 37.125 177.6094 Q32.2031 177.6094 24.0469 173.9531 Q17.8594 170.8594 11.5312 167.7656 L11.5312 163.5469 Q12.5156 162.5625 14.625 162.5625 Q17.1562 162.5625 22.6406 164.5312 Q28.125 166.5 30.6562 166.5 L54.9844 166.5 Q54.9844 166.5 57.375 168.75 Q58.7812 170.1562 58.7812 171.5625 ZM231.8906 244.9688 L212.9062 243 Q211.3594 242.8594 208.2656 243.6328 Q205.1719 244.4062 203.9062 244.4062 Q196.5938 244.4062 170.5781 234.4219 Q157.6406 229.5 149.9062 224.0156 Q120.375 203.2031 105.3281 174.2344 Q94.0781 186.75 75.9375 194.3438 Q70.0312 196.3125 64.125 198.4219 Q55.5469 201.7969 55.5469 205.4531 Q55.5469 207.4219 59.5547 209.8125 Q63.5625 212.2031 83.8125 212.2031 Q87.3281 212.2031 93.9375 211.0078 Q100.5469 209.8125 104.0625 209.8125 Q105.75 209.8125 109.5469 206.4375 Q113.3438 203.0625 113.9062 203.0625 Q115.875 203.0625 115.875 205.1719 Q115.875 207.1406 115.7344 208.4062 Q112.2188 212.2031 104.7656 219.0938 Q102.6562 220.3594 98.4375 223.0312 Q95.9062 225.5625 90.2812 230.3438 Q82.2656 234.9844 66.9375 245.1094 Q52.4531 255.9375 38.5312 277.1719 Q34.4531 283.2188 34.5938 283.7812 L34.5938 284.9062 Q54.9844 267.75 93.6562 245.9531 Q99.5625 244.125 109.125 238.7812 Q103.2188 235.5469 103.2188 232.4531 Q103.2188 230.0625 106.1719 230.0625 Q108 230.0625 111.375 231.8906 Q115.875 234.2812 116.4375 234.4219 Q129.0938 239.2031 141.6094 243.8438 Q156.2344 249.0469 167.3438 251.4375 Q173.5312 252.4219 179.7188 253.2656 Q189.4219 255.0938 189.4219 257.9062 Q189.4219 262.6875 187.1719 263.6719 Q185.9062 264.2344 182.9531 264.2344 Q181.5469 264.2344 178.8047 263.5312 Q176.0625 262.8281 174.6562 262.8281 Q174.2344 262.8281 169.5938 267.4688 Q164.3906 272.5312 163.6875 273.0938 Q157.5 276.1875 145.2656 282.7969 Q138.6562 286.5938 125.0156 296.0156 Q120.7969 298.6875 116.5781 301.2188 Q111.5156 304.5938 110.1094 308.3906 Q108.1406 313.4531 108.2812 316.4062 Q108.7031 316.4062 109.8984 316.8281 Q111.0938 317.25 111.6562 317.25 Q109.9688 317.25 119.25 314.7188 Q132.1875 311.2031 149.2031 302.3438 Q163.5469 294.6094 177.8906 286.875 Q191.3906 280.2656 214.3125 266.7656 Q224.5781 259.1719 231.8906 244.9688 ZM167.2031 261.1406 Q142.5938 255.2344 130.6406 250.1719 Q125.0156 246.9375 113.3438 242.1562 Q109.9688 246.375 106.7344 248.2734 Q103.5 250.1719 70.4531 271.8281 Q52.0312 283.9219 44.8594 289.9688 Q28.6875 303.8906 28.6875 314.5781 Q28.6875 316.4062 29.1094 318.2344 Q31.5 319.6406 35.5781 320.2031 Q42.1875 320.9062 42.3281 320.9062 Q49.6406 308.3906 79.3125 289.125 Q90.1406 283.6406 110.8125 271.2656 Q116.1562 267.6094 131.0625 252.7031 Q131.4844 252.5625 133.3125 252.5625 Q133.5938 252.5625 133.875 252.8438 L133.875 256.6406 Q131.2031 260.1562 125.8594 267.0469 Q118.5469 276.75 94.3594 291.7969 Q90.8438 294.1875 83.9531 298.8281 Q82.8281 299.25 80.4375 300.375 Q73.6875 304.1719 62.8594 314.1562 Q50.2031 325.6875 50.2031 330.75 Q50.2031 332.2969 52.1719 334.4062 Q62.0156 330.8906 75.6562 323.2969 Q97.5938 311.2031 98.5781 310.7812 Q99.7031 309.0938 100.8281 305.8594 Q104.2031 297 124.3125 285.1875 Q129.7969 281.5312 140.9062 275.2031 Q148.0781 272.25 155.3906 269.2969 Q165.7969 264.6562 167.2031 261.1406 Z" stroke="none" />
    </g>
  </g>
</svg>
